<svg xmlns="http://www.w3.org/2000/svg" xmlns:xlink="http://www.w3.org/1999/xlink" width="563.988" height="563.986" viewBox="0 0 563.988 563.986">
  <defs>
    <clipPath id="clip-path">
      <rect id="Rectangle_1" data-name="Rectangle 1" width="553.463" height="553.461" fill="#c6b5ff"/>
    </clipPath>
  </defs>
  <g id="Group_4" data-name="Group 4" transform="translate(-4840.374 -776.375)">
    <path id="Path_1" data-name="Path 1" d="M561.2,280.511c0,154.285-125.078,279.361-279.366,279.361S2.474,434.8,2.474,280.511,127.546,1.146,281.835,1.146,561.2,126.22,561.2,280.511" transform="translate(4842.449 777.336)" fill="#fff"/>
    <path id="Path_3" data-name="Path 3" d="M238.665,92.532c.631-1.011,1.294-2.026,1.879-3.106-1.971,1.329-2.57,2.359-1.879,3.106" transform="translate(5040.305 851.374)" fill="#97c555"/>
    <path id="Path_4" data-name="Path 4" d="M239.265,94.448a1.3,1.3,0,0,1-.967-.423,2.262,2.262,0,0,1-.61-1.813c.127-1.081.967-2.092,2.719-3.277a1.325,1.325,0,0,1,1.622.114,1.312,1.312,0,0,1,.272,1.6c-.484.892-1.015,1.738-1.539,2.57l-.381.6a1.3,1.3,0,0,1-.993.614c-.04,0-.081.006-.123.006" transform="translate(5039.705 850.774)" fill="#dbe589"/>
    <path id="Path_5" data-name="Path 5" d="M118.7,346.57a14.142,14.142,0,0,1,9.519,3.62c3.593,3.19,6.071,7.529,8.471,11.733l.64,1.12a1.314,1.314,0,0,1,.081,1.145,1.329,1.329,0,0,1-.842.774c-4.115,1.228-7.439,3.878-10.782,8.607l-.969,1.362c-3.856,5.433-8.224,11.587-10.39,17.372-4.885,13.1,17.716,22.379,28.577,26.835l2.328.96c9.745,4.084,19.707,8.259,26.769,16.811,3.245,3.926,5.336,8.6,7.36,13.115a61.767,61.767,0,0,0,6.036,11.3c5.511,7.548,15.765,13.15,23.482,15.353a43.723,43.723,0,0,0,5.978,1.144,35.464,35.464,0,0,1,8.614,2.013c1.454.579,2.782,1.254,4.063,1.9a21.694,21.694,0,0,0,7.82,2.773.561.561,0,0,0,.156-.1c-3-5.249-8.232-8.809-13.288-12.255l-1.044-.71A76.5,76.5,0,0,1,203.5,454.693c-10.819-14.211,2.133-24.328,12.54-32.458,2-1.563,3.883-3.038,5.54-4.481,8.748-7.629,13.158-19.361,17.421-30.71,1.162-3.085,2.3-6.119,3.5-9.009l.89-2.1c4.551-10.747,9.71-22.925-1.971-29.638-4.7-2.7-10.241-3.17-16.116-3.67a57.389,57.389,0,0,1-12.551-2c-10.762-3.46-13.762-14.25-16.406-23.767a84.639,84.639,0,0,0-3.012-9.451c-2.359-5.705-8.063-14.193-14.114-14.193a7.942,7.942,0,0,0-5.086,2.07c-3.392,2.833-5.845,6.371-8.441,10.118-.794,1.147-1.592,2.295-2.414,3.427-2.957,4.041-3.839,8.136-2.951,13.709a1.313,1.313,0,0,1-.276,1.031,1.329,1.329,0,0,1-.958.487c-2.539.131-5.066.37-7.59.607-3.5.331-7.127.669-10.742.71h-.006a36.145,36.145,0,0,1-7.732-1.039,28.555,28.555,0,0,0-8.2-.93c-5.222.428-7.669,5.185-10.265,10.212-1.445,2.8-2.938,5.7-4.961,7.671-3.391,3.323-7.259,3.516-11,3.7a25.747,25.747,0,0,0-5.6.693,10.037,10.037,0,0,0-1.344.528c-1.243.561-2.758.925-3.856,0a49.356,49.356,0,0,1-4.038-3.944l-.781-.824c-.612-.636-1.386-1.556-2.273-2.615-1.162-1.383-2.477-2.947-3.9-4.433a1.316,1.316,0,0,1-.04-1.774c4.365-5.007,10.624-8.838,16.675-12.547,4.558-2.793,8.866-5.433,12.047-8.373,3.264-3.012,3.411-4.1,1-7.3-6.191-8.213-10.26-15.783-9.978-26.039.151-5.59,3.379-6.422,5.288-6.422,2.468,0,5.306,1.25,7.816,2.352.649.29,1.269.561,1.839.792a58.808,58.808,0,0,0,21.231,4.644c6.207,0,6.571-4.885,6.654-12.856.061-5.819.125-11.836,4.372-14.594a21.751,21.751,0,0,1,5.056-2.2,21.425,21.425,0,0,0,4.139-1.723,21.015,21.015,0,0,0,4.236-4.095c.5-.577.982-1.129,1.436-1.611l.938-.98c2.651-2.76,8.872-9.217,7.93-12.788-.449-1.7-1.546-2.833-2.936-4.262a49.832,49.832,0,0,1-7.092-9.826c-1.142-1.942-2.256-3.9-3.363-5.856-3.335-5.88-6.783-11.959-11.071-17.346-1.5-1.885-5.494-6.893-9.546-6.893a5.13,5.13,0,0,0-1.6.256,20.744,20.744,0,0,0-5.867,3.174c-3.056,2.221-6.691,3.394-10.2,4.523-1.414.456-2.819.906-4.168,1.429a85.41,85.41,0,0,1-20.093,4.909,4.33,4.33,0,0,1-3.881-1.085c-1.528-1.535-1.526-4.076-1.522-6.318l-.018-1.789c-.077-3.28-.165-7,2-9.215,1.337-1.368,3.256-1.956,5.948-1.749.68.055,1.377.125,2.081.2a39.122,39.122,0,0,0,4.03.285c3.129,0,4.992-.872,6.226-2.92.333-.55.656-1.072.971-1.572,1.712-2.758,2.951-4.747,3.214-8.21a22.784,22.784,0,0,0-.993-7.07,28.721,28.721,0,0,1-1.107-6.882c-.006-13.124,17.359-17.613,24.824-18.935a83.461,83.461,0,0,0,10.81-2.969c5.551-1.8,11.291-3.652,17.164-3.652a25.784,25.784,0,0,1,3.859.283c.017-.028.224-.2.265-.3-.013-1.388-.053-2.887-.092-4.391-.143-5.385-.291-10.958,1.35-16.294,1.761-5.742,6.82-8.655,15.027-8.655l.587.006c6.264.1,12.832.7,15.088,4.521,1.1,1.87.949,4.166-.458,6.827-3.672,6.917-.5,19.245.686,23.886,1.226,4.77,4.089,13.049,9.528,14.945,2.646.91,5.955-2.811,6.8-5.328a38.859,38.859,0,0,0,1.515-10.287l.055-.919c.463-7.844,3.6-13.033,10.157-16.829,7.134-4.128,15.287-5.082,23.169-6.009,9.331-1.092,18.144-2.126,25.5-7.95a42.763,42.763,0,0,0-3.664-9.186c-1.75-3.47-1.559-6.593-1.357-9.9.046-.688.086-1.386.112-2.111.223-6.259-1.153-7.822-5.711-13a10.932,10.932,0,0,1-2.554-4.531,1.391,1.391,0,0,1,0-.651c.859-3.335,3.576-6.522,5.976-9.337.52-.612,1.019-1.2,1.465-1.749a11.087,11.087,0,0,1,3.466-2.633,8.8,8.8,0,0,0,2.548-1.852c3.043-3.661-.587-11.063-2.534-15.04l-.25-.507c-.41-.84-.809-1.7-1.212-2.578-1.949-4.22-3.966-8.585-7.721-11.065-3.392-2.234-9.03-1.442-16.116,2.188a39.08,39.08,0,0,1-3.714,1.581,20.033,20.033,0,0,0-5.81,2.971,27.061,27.061,0,0,0-2.407,2.4c-2.129,2.287-4.545,4.882-8.123,4.882a9.011,9.011,0,0,1-3.556-.8,18.841,18.841,0,0,0-6.06-.888c-1.208-.055-2.37-.114-3.372-.254l-16.346-2.278c-1.166-.162-2.482-.43-3.876-.721a41.81,41.81,0,0,0-7.991-1.118,8.969,8.969,0,0,0-4.65,1.039,23.36,23.36,0,0,0-3.5,2.756,19.387,19.387,0,0,1-5.766,3.979l-.474.193c-2.657,1.061-5.968,2.383-7.952,4.214-3.284,3.041-3.251,6.4-3.208,10.657.009.991.017,2.013-.011,3.071-.138,4.7-4.917,5.18-7.48,5.435-.4.039-.769.077-1.094.123a14.092,14.092,0,0,1-1.866.167c-2.907,0-2.933-2.155-2.958-4.242l-.009-1.317c-.029-3.493-.057-7.1-.967-10.219-1.269-4.354-7.342-6.89-11.775-8.741l-1.3-.544A276.71,276.71,0,0,0,8.137,197c.421.574.848,1.144,1.278,1.715a61.8,61.8,0,0,1,5.845,8.8c.349.789.667,1.51,1,2.227l.21.5c.134.313.267.623.375.947a33.514,33.514,0,0,1,1.361,6.171c.77,2.3.662,4.632.533,7.327l-.009.272c.02.846.031,1.782.037,2.716l0,.274A33.662,33.662,0,0,0,20.894,235c2.013,5.362,4.3,11.442.131,16.555a19.363,19.363,0,0,1-6.183,4.617c-.844.462-1.693.93-2.528,1.465l-.142.153a49.592,49.592,0,0,0-3.815,4.532c-1.191,4.04,1.48,9.081,3.609,12.542,2.157,3.5,4.345,7.064,5.042,11.357,1.129,6.97,2.344,11.216,9.69,11.459,3.516.114,8.587.728,11.944,4.773.963,1.16,1.888,2.468,2.786,3.733,2.513,3.554,5.112,7.228,8.989,8.406.945.287,2.043.535,3.212.8,5.132,1.162,12.155,2.751,12.979,9.331a27.505,27.505,0,0,1-.184,6.165c-.6,5.768-.662,9.116,5.226,10.754,3.721,1.037,7.314,2.232,10.4,5.479,2.832,2.982,3.049,6.529,3.234,9.657a16.881,16.881,0,0,0,.664,4.518l.268.068c3.624.9,5.808,1.219,9.431-.522s6.645-4.788,9.587-7.756l1.144-1.149A17.746,17.746,0,0,1,118.7,346.57" transform="translate(4847.135 789.137)" fill="#4330bf"/>
    <path id="Path_6" data-name="Path 6" d="M241.425,11.64a17.387,17.387,0,0,0-4.483.05c-4.93.765-7.037,6.65-7.434,10.881-.546,5.674,2.828,11.606,5.946,16.083,2.026,2.912,4.163,5.488,5.152,8.969a15.136,15.136,0,0,1-.309,8.059c-.515.539-1.087,1.1-1.677,1.734a51.48,51.48,0,0,0-6.132,8.787c-3.959,6.619-10.05,9.12-16.41,12.707-11.258,6.354-8.9,16.024-4.04,26.225,1.7,3.552,2.376,7.415,4.108,10.935,1.4,2.839,3.815,5.181,5.961,7.448a28.276,28.276,0,0,0,8.149,5.825c5.841,3.041,7.026,6.378,4.639,12.4-1.872,4.725-6.4,13.154-2.672,18.078,3.58,4.729,10.5,2.7,15.346,1.806,6.13-1.127,11.716.982,17.554.079,9.574-1.484,9.186-17.627,11.438-24.44,4.806-14.529,18.208-.338,21.246,8.223,2.661,7.493-9.138,11.354-6.112,19.277,2.05,5.389,9.454,8.366,14.68,9.133,10.837,1.59,9.127,10.247,9.839,19.122.333,4.177.969,8.335,1.578,12.477.287,1.956.379,3.451.667,5.281q1.807,5.469-6.507,2.138a17.736,17.736,0,0,1-2.341-3.685c-2.561-4.819-4.692-10.144-9.232-13.43-4.65-3.363-10.808-3.019-15.612-.465-9.96,5.294-18.091,7.355-29.11,3.848-5.858-1.866-13.261-5.194-19.508-3.488-5.084,1.383-7.653,4.757-10.034,9.258-4.286,8.09-8.149,16.368-12.227,24.574-6.375,12.814-24.855,14.511-35.113,23.445-10.394,9.046-7.344,22.333-.763,32.752,3.635,5.755,9.147,11.606,15.41,14.485,9.21,4.234,16.3,10.539,20.093,20.054,3.372,8.447,9.815,4.573,16.011.875,5.807-3.464,10.613-8.349,16.434-11.823,6.678-3.977,14.586-5.687,21.61-8.953,5.669-2.637,9.515-6.638,14.013-10.821,2.113-1.964,4.336-3.8,6.6-5.588,4.56-3.6,7.068-3.891,11.775-1.127,7.474,4.393,16.594,4.093,24.247,8.048,12.6,6.5-1.324,25.581-5.078,33.924-2.855,6.318-5.978,15.677-4.622,23.4-.449,3.229-.305,6.373,1.765,9.276,5.031,7.037,15.616,13.279,10.8,23-2.581,5.2-5.472,10.067-8.508,15.009-5.437,8.861-12.976,20.064-12.93,30.892.039,8.458,14.59,9.013,18.712,3.254,4.271-5.976,5.3-13.529,9.7-19.5,6.8-9.23,19.183-12.953,29.923-14.676,6.987-1.125,14.867-.7,21.371-3.688,5.2-2.392,8.7-8.346,10.754-13.4,3.337-8.221,5.522-17,9.708-24.853.489-.914,1.013-1.8,1.546-2.681A279.659,279.659,0,0,0,418.686,275.7c1.692-119.641-72.1-222.766-177.261-264.058" transform="translate(4984.626 786.036)" fill="#97c555"/>
    <path id="Path_7" data-name="Path 7" d="M394.226,384.282c3.67-7.491,6.994-15.167,10.24-22.88,1.366-4.663,2.491-9.147,3.536-12.878A284.509,284.509,0,0,0,418.686,275.7c1.692-119.641-72.1-222.766-177.261-264.058a17.387,17.387,0,0,0-4.483.05c-4.93.765-7.037,6.65-7.434,10.881-.546,5.674,2.828,11.606,5.946,16.083,2.026,2.912,4.163,5.488,5.152,8.969a15.136,15.136,0,0,1-.309,8.059c-.515.539-1.087,1.1-1.677,1.734a51.48,51.48,0,0,0-6.132,8.787c-3.959,6.619-10.05,9.12-16.41,12.707-11.258,6.354-8.9,16.024-4.04,26.225,1.7,3.552,2.376,7.415,4.108,10.935,1.4,2.839,3.815,5.181,5.961,7.448a28.276,28.276,0,0,0,8.149,5.825c5.841,3.041,7.026,6.378,4.639,12.4-1.872,4.725-6.4,13.154-2.672,18.078,3.58,4.729,10.5,2.7,15.346,1.806,6.13-1.127,11.716.984,17.554.079,9.574-1.484,9.186-17.627,11.438-24.44,4.806-14.529,18.208-.338,21.246,8.223,2.661,7.493-9.138,11.354-6.112,19.277,2.05,5.389,9.454,8.366,14.68,9.133,10.837,1.59,9.127,10.247,9.839,19.124.333,4.176.969,8.333,1.578,12.475.287,1.956.379,3.451.667,5.281q1.807,5.469-6.507,2.138a17.688,17.688,0,0,1-2.341-3.685c-2.561-4.819-4.692-10.144-9.232-13.43-4.65-3.363-10.808-3.019-15.612-.465-9.96,5.294-18.091,7.355-29.11,3.848-5.858-1.866-13.261-5.194-19.508-3.488-5.084,1.385-7.653,4.757-10.034,9.258-4.286,8.09-8.149,16.368-12.227,24.574-6.375,12.814-24.855,14.511-35.113,23.445-10.394,9.046-7.344,22.333-.763,32.752,3.635,5.755,9.147,11.606,15.41,14.485,9.21,4.234,16.3,10.539,20.093,20.054,3.372,8.447,9.815,4.573,16.011.875,5.807-3.464,10.613-8.349,16.434-11.821,6.678-3.979,14.586-5.689,21.61-8.954,5.669-2.637,9.515-6.638,14.013-10.821,2.113-1.964,4.336-3.8,6.6-5.586,4.56-3.6,7.068-3.892,11.775-1.129,7.474,4.393,16.594,4.093,24.247,8.048,12.6,6.5-1.324,25.581-5.078,33.924-2.855,6.318-5.978,15.677-4.622,23.4-.449,3.229-.305,6.373,1.765,9.276,5.031,7.037,15.616,13.279,10.8,23-2.581,5.2-5.472,10.067-8.508,15.009-5.437,8.861-12.976,20.064-12.93,30.892.039,8.458,14.59,9.013,18.712,3.254,4.271-5.976,5.3-13.529,9.7-19.5,6.8-9.23,19.183-12.953,29.923-14.676,6.987-1.125,14.867-.7,21.375-3.688a23.927,23.927,0,0,0,8.883-7.482" transform="translate(4984.626 786.036)" fill="#4330bf"/>
    <path id="Path_8" data-name="Path 8" d="M279.992,563.986C125.6,563.986,0,437.485,0,282S125.6,0,279.992,0s280,126.5,280,282-125.605,281.99-280,281.99m0-561.368C127.037,2.618,2.6,127.948,2.6,282s124.435,279.37,277.391,279.37,277.4-125.328,277.4-279.37S432.949,2.618,279.992,2.618" transform="translate(4844.374 776.375)" fill="#4330bf"/>
    <g id="Group_3" data-name="Group 3" transform="translate(4847.556 781.113)" opacity="0.5" style="mix-blend-mode: screen;isolation: isolate">
      <g id="Group_2" data-name="Group 2">
        <g id="Group_1" data-name="Group 1" clip-path="url(#clip-path)">
          <path id="Path_9" data-name="Path 9" d="M278.992,556.019c-5.134-5.816-9.328-18.766-12.751-36.086q14.074.025,28.74.574c-3.4,17.032-7.562,29.757-12.635,35.512-.572,0-1.136.018-1.71.018m-6.538-.085c-15.529-5.623-28.237-18.344-38.623-35.488q13.754-.513,28.159-.535c3.267,16.451,7.235,29.178,12.041,36.044-.528-.007-1.054-.007-1.578-.02M31.957,400.625A311.826,311.826,0,0,1,15.479,356.2c16.283-1.614,34.83-3.26,55.482-4.792a374.745,374.745,0,0,0,16.026,55.471c.484,1.289,1,2.589,1.511,3.887-17.116,2.116-32.986,4.415-47.53,6.766q-4.788-8.277-9.011-16.9M499.234,273.446a453.664,453.664,0,0,0-5.292-52.825q27.751-1.542,56.368-3.534a276.449,276.449,0,0,1,7.059,62.223c0,1.975-.037,3.944-.077,5.909q-29.607-.466-58.317-.82c.3-6.823.263-10.788.259-10.953M62.361,284.318c-22.125.278-41.652.57-58.382.855-.042-1.951-.074-3.9-.074-5.864a276.542,276.542,0,0,1,6.7-60.6c16.46,1.134,35.376,2.295,56.578,3.376a454.152,454.152,0,0,0-5.086,51.4c0,.156-.037,4.078.261,10.833m2.37-10.758A452.537,452.537,0,0,1,69.8,222.221c17.736.89,37.018,1.725,57.731,2.442-1.853,17.026-2.889,33.512-3.365,48.828,0,.151-.02,3.824.165,10.17-21.382.184-41.2.4-59.347.625-.294-6.7-.257-10.576-.257-10.725M289.342,2.729c5.948,2.322,22.073,10.874,38.469,39.21.816,1.412,1.605,2.868,2.394,4.325q-15.734,1.167-30.882,1.756c-5.01-28.788-10.161-40.6-13.176-45.371q1.6.03,3.2.081M251.967,341.712c-.642-23.958-.881-44.02-.967-56.05q28.667-.044,59.34.017c-.088,12.08-.329,32.228-.976,56.289q-29.607-.428-57.4-.256m57.324,2.887c-.484,17.309-1.177,36.511-2.177,56.118q-27.445-.745-52.917-.535c-.991-19.521-1.679-38.618-2.157-55.839q27.69-.163,57.251.256M248.93,226.963c-.3,14.572-.511,30.049-.61,46.541-.007,1.031-.007,4.372.015,9.528q-30.912.047-59.358.191c-.108-5.935-.1-9.407-.1-9.693.27-14.822.86-30.75,1.91-47.208q27.856.507,58.141.642m-57.972-3.269c1.228-18.438,3.043-37.5,5.659-56.434q25.7.949,54.191,1.19c-.763,16.886-1.386,35.468-1.822,55.885q-30.195-.119-58.029-.64m57.391,61.971c.074,12.122.285,32.158.912,56.07q-29.756.2-57.223.969c-1.995-24.269-2.736-44.632-3.006-56.85q28.385-.141,59.318-.189m.984,58.7c.463,17.216,1.147,36.318,2.142,55.844q-27.55.245-52.557,1.384c-3.054-19.632-5.178-38.888-6.66-56.262q27.373-.745,57.074-.967M264.88,227c14.577,0,29.573-.088,44.889-.252.3,14.6.517,30.16.62,46.765,0,.283,0,3.688-.035,9.537q-30.664-.061-59.374-.018c-.035-5.832-.029-9.234-.029-9.515.1-16.519.311-32,.614-46.539,4.407.011,8.837.022,13.316.022m-13.257-2.65c.447-20.492,1.074-39.076,1.841-55.881q5.141.03,10.365.033c14.2,0,28.919-.184,44.02-.542.776,16.879,1.408,35.554,1.859,56.166q-29.974.325-58.084.224M312,344.638q27.743.428,57.012,1.467c-1.517,17.637-3.707,37.184-6.847,57.074q-26.943-1.682-52.329-2.385c1-19.628,1.693-38.836,2.164-56.157m-1.5-176.75q26.182-.659,54-2.122c2.7,19.188,4.571,38.539,5.829,57.249q-29.745.761-57.988,1.079c-.445-20.555-1.072-39.235-1.842-56.206m1.567,174.119c.631-24.022.848-44.152.916-56.324q28.854.061,59.318.221c-.276,12.356-1.03,33-3.072,57.573q-29.309-1.048-57.161-1.469m.93-58.955c.024-5.169.02-8.517.018-9.556-.1-16.583-.314-32.144-.618-46.785q28.289-.328,58.1-1.07c1.079,16.7,1.681,32.853,1.958,47.872,0,.289.011,3.786-.1,9.758q-30.468-.168-59.354-.219M367.14,165.634c17.28-.952,35.058-2.208,53.2-3.727a483.823,483.823,0,0,1,10.414,59.119q-29.508,1.189-57.788,1.925c-1.258-18.727-3.131-38.1-5.827-57.317m-.384-2.677a522.511,522.511,0,0,0-11.124-56.5q21.711-1.649,44.389-4.185A331.792,331.792,0,0,1,419.7,159.331q-27.018,2.239-52.947,3.626m-2.627.143q-27.528,1.456-53.752,2.081c-1-21.27-2.221-39.842-3.6-56.017q22.47-.8,46.189-2.523A518.243,518.243,0,0,1,364.128,163.1m-56.409,2.133q-27.859.632-54.123.439c1.006-21.347,2.228-39.822,3.576-55.769,2.341.013,4.685.026,7.055.026q19.378,0,39.886-.664c1.357,15.976,2.591,34.525,3.606,55.967m-56.778.414q-27.958-.232-53.917-1.241a524.825,524.825,0,0,1,10.848-55.826q22.326,1.073,46.625,1.311c-1.362,16.118-2.569,34.615-3.556,55.756M194.387,164.3q-27.911-1.1-53.3-2.9a336.4,336.4,0,0,1,18.931-56.129c14.246,1.289,29.323,2.376,45.185,3.174A529.978,529.978,0,0,0,194.387,164.3m-.408,2.855c-2.615,18.957-4.426,38.037-5.654,56.488q-30.5-.576-57.891-1.521a478.657,478.657,0,0,1,9.966-57.861c16.581,1.158,34.475,2.16,53.579,2.894m-5.821,59.115c-1.046,16.458-1.64,32.39-1.912,47.221,0,.147-.017,3.657.09,9.736q-31.348.165-59.369.4c-.188-6.3-.164-9.947-.164-10.092.535-17.379,1.686-33.6,3.332-48.795,18.273.614,37.647,1.142,58.023,1.526m-1.772,59.591c.256,12.244.969,32.644,2.929,56.911q-30.043.849-57.074,2.219a585.8,585.8,0,0,1-5.185-58.727q27.975-.237,59.33-.4m3.139,59.538c1.46,17.42,3.563,36.7,6.6,56.311-18.44.851-35.8,1.984-51.917,3.311a497.207,497.207,0,0,1-11.589-57.416q26.932-1.332,56.911-2.206m7.005,58.93c.12.765.239,1.521.362,2.285a527.64,527.64,0,0,0,11.335,53.636c-14.959.818-29.251,1.921-42.8,3.245a334.669,334.669,0,0,1-20.525-55.89c16.037-1.315,33.3-2.434,51.626-3.277m12.426,58.518q9.22,33.024,21.742,55.138-13.76.587-26.817,1.605c-15.4-15.38-27.6-34-37.244-53.575,13.406-1.293,27.538-2.368,42.319-3.168m-9.622-58.643q24.85-1.089,52.275-1.368c.98,18.736,2.249,37.8,3.894,55.918-15.366.136-30.156.612-44.353,1.346a523.994,523.994,0,0,1-11.817-55.9m55-1.394q25.324-.179,52.647.53c-.987,18.824-2.258,37.943-3.889,56.052q-23.159-.83-44.9-.669c-1.618-18.085-2.878-37.154-3.856-55.912m55.366.61q25.252.731,52.053,2.366a515.426,515.426,0,0,1-12.109,56.3q-22.508-1.8-43.871-2.585c1.659-18.151,2.94-37.274,3.927-56.085m42.1,61.491q20.285,1.663,41.431,4.2c-11.694,22.967-24.916,40.238-38.643,53.185q-12.7-1.409-25.07-2.409,12.825-21.854,22.283-54.976m.726-2.574a521.009,521.009,0,0,0,11.92-55.723c.037-.221.068-.441.1-.658q24.963,1.6,51.17,4.13a325.936,325.936,0,0,1-21.25,56.523q-21.408-2.6-41.946-4.271m65.863-51.979q24.251,2.394,49.468,5.674A269.866,269.866,0,0,1,436.114,472.5q-19.745-3.177-38.875-5.564a331,331,0,0,0,21.15-56.572m-1.524-4.3c-.132.495-.278.962-.41,1.454q-26.35-2.568-51.5-4.17c3.124-19.871,5.29-39.456,6.787-57.155q27.768,1.023,56.8,2.657a494.353,494.353,0,0,1-11.681,57.214m-44.9-62.495c2-24.576,2.729-45.265,2.99-57.652q28.984.16,59.33.425a586.559,586.559,0,0,1-5.352,59.895q-29.089-1.649-56.968-2.668M375,283.289c.1-6.121.094-9.657.09-9.806-.278-15.042-.884-31.208-1.958-47.912q28.314-.747,57.924-1.927c1.932,17.4,3,34.249,3.477,49.872,0,.154.024,3.837-.165,10.2q-30.33-.268-59.367-.423m48.019-121.61q25.379-2.16,51.788-5.128a353.783,353.783,0,0,1,16.02,61.623q-29.229,1.6-57.409,2.745a478.812,478.812,0,0,0-10.4-59.24m54.533-5.431q23.5-2.695,47.75-6.11A274.741,274.741,0,0,1,549.684,214.5q-28.493,1.983-56.153,3.521a350.526,350.526,0,0,0-15.978-61.77m-.941-2.53a271.843,271.843,0,0,0-29.443-57.683q17.387-2.645,35.235-5.906a278.161,278.161,0,0,1,41.6,57.551q-24.017,3.365-47.4,6.038m-2.718.316q-26.185,2.946-51.5,5.075A334.373,334.373,0,0,0,402.7,101.957q20.47-2.35,41.655-5.507a268.29,268.29,0,0,1,29.536,57.584M401.558,99.425C390.605,76.005,378.391,58.5,366.78,45.461q12.585-1.451,25.493-3.31a223.834,223.834,0,0,1,50.422,51.865q-20.914,3.111-41.137,5.408M364.619,43.056q-1.489-1.608-2.962-3.126C341.829,19.509,322.129,9.212,308.7,4.111a220.911,220.911,0,0,1,80.46,35.8c-8.267,1.164-16.471,2.236-24.544,3.146m-1.085,2.758c14.415,15.8,26.036,34.142,35.341,53.927q-22.45,2.515-43.944,4.1c-5.382-20.115-12.124-38.9-20.529-55.247q14.331-1.131,29.132-2.782m-11.269,58.233q-23.457,1.721-45.715,2.486c-2.039-23.32-4.382-41.589-6.783-55.89q15.588-.621,31.791-1.839c8.493,16.281,15.287,35.082,20.707,55.243m-48.379,2.587q-24.006.794-46.487.638c2.089-24.094,4.45-42.286,6.717-55.91h.336q15.947,0,32.671-.616c2.274,13.573,4.654,31.754,6.763,55.888m-49.157.61q-24.039-.19-46.175-1.276c5.3-20.135,11.972-38.954,20.293-55.331q15.845.645,32.6.71c-2.377,14.34-4.7,32.624-6.72,55.9m-48.865-1.394c-15.693-.781-30.588-1.855-44.7-3.122,10.7-23.4,22.665-41,34.111-54.12q14.855,1.191,30.682,1.9c-8.23,16.447-14.834,35.255-20.095,55.344M194.172,45.87q-13.718-1.12-26.6-2.593c.566-.427,1.138-.868,1.7-1.289A221.154,221.154,0,0,1,252.6,4.122c-13.428,5.108-33.109,15.4-52.921,35.808q-2.827,2.907-5.511,5.939m-2.105,2.469c-13.753,16.048-24.835,34.446-33.723,54.14-8.167-.754-16.074-1.568-23.667-2.436-6.3-.721-12.442-1.491-18.486-2.289a226.881,226.881,0,0,1,48.363-52.178q13.294,1.564,27.514,2.764m-57.8,54.307q11.051,1.263,22.919,2.372a342.311,342.311,0,0,0-18.723,56.206c-18.449-1.311-35.808-2.848-52.04-4.51a271.888,271.888,0,0,1,28.115-56.525c6.441.859,13,1.682,19.729,2.456m-.009,61.178c1.16.086,2.348.171,3.521.254a491.277,491.277,0,0,0-9.967,57.959c-20.665-.713-39.9-1.544-57.595-2.431A350.845,350.845,0,0,1,85.4,159.491c15.311,1.589,31.6,3.063,48.861,4.334m-9.839,122.467a588.844,588.844,0,0,0,5.181,58.834c-20.22,1.026-39.11,2.214-56.53,3.49a424.881,424.881,0,0,1-7.96-61.7c18.135-.224,37.939-.436,59.308-.623m5.553,61.45a500.379,500.379,0,0,0,11.565,57.514c-2.534.217-5.078.428-7.551.651q-22.5,2.022-42.791,4.525c-.588-1.476-1.173-2.955-1.727-4.417a371.521,371.521,0,0,1-15.866-54.8c17.374-1.271,36.211-2.449,56.37-3.471m4.251,60.787c2.62-.235,5.319-.462,8.011-.688A337.738,337.738,0,0,0,162.6,463.786c-9.971,1-19.586,2.1-28.733,3.3q-5.781.756-11.424,1.567a273.957,273.957,0,0,1-30.235-55.692q19.938-2.419,42.016-4.435m.1,61.156c9.374-1.226,19.233-2.355,29.474-3.374q15.624,32.015,36.7,53.575-12.257,1-23.868,2.313a212.9,212.9,0,0,1-52.459-51.128c3.354-.469,6.73-.941,10.157-1.386m68.57,52.639a135.966,135.966,0,0,0,48.718,31.248c-27.922-5.893-51.6-16.11-71.64-29.11q11.156-1.211,22.923-2.138m3.539-.265q12.574-.935,25.784-1.484,14.526,24.464,33.274,34.471c-23.531-5.854-42.985-17.657-59.058-32.988m5.428-59.354q21.079-1.089,43.874-1.316c1.925,20.6,4.347,39.866,7.391,55.909q-14.946.028-29.2.581c-9.052-15.669-16.287-34.705-22.068-55.173m46.563-1.355q21.5-.127,44.424.671c-1.92,20.715-4.328,40.01-7.351,55.868q-15.2-.579-29.77-.592c-3.008-15.916-5.395-35.229-7.3-55.947m47.1.785c14.1.542,28.551,1.359,43.384,2.536-5.909,20.5-13.312,39.486-22.564,54.986q-14.375-1.092-28.266-1.671c3.069-15.98,5.509-35.231,7.447-55.85m22.5,60.29q11.854.927,24.024,2.241c-18.806,16.94-38.421,25.938-56.26,30.412q18.062-9.6,32.236-32.653m27.527,2.637q10.235,1.15,20.685,2.583a211.292,211.292,0,0,1-66.514,25.927,135.068,135.068,0,0,0,45.829-28.51m2.5-2.368c14.461-14.088,27.143-31.9,37.921-53.255q18.845,2.322,38.344,5.43a210.375,210.375,0,0,1-54.548,50.587c-7.325-1.041-14.548-1.938-21.717-2.762m79.216-47.34q16.038,2.6,32.486,5.779a277.761,277.761,0,0,1-69.219,47.559q-8.442-1.409-16.767-2.646a213.672,213.672,0,0,0,53.5-50.692m1.787-2.372a273.366,273.366,0,0,0,31.5-56.582q22.817,3.034,46.347,6.856a278.85,278.85,0,0,1-44.79,55.659q-16.727-3.254-33.056-5.933M468.9,413.52q-25.371-3.334-49.782-5.733c.1-.344.2-.686.292-1.033A497.106,497.106,0,0,0,431.181,349q27.594,1.586,56.208,3.793a370.991,370.991,0,0,1-15.528,53.219c-.936,2.479-1.936,4.985-2.966,7.505m-37.334-67.134a588.583,588.583,0,0,0,5.351-60.02q29.086.256,59.3.629a424.431,424.431,0,0,1-8.276,63.2q-28.7-2.228-56.378-3.81M437,283.733c.189-6.4.165-10.115.164-10.273-.548-17.8-1.743-34.394-3.449-49.926q28.237-1.153,57.551-2.764a449.405,449.405,0,0,1,5.341,52.752c0,.153.035,4.082-.263,10.839Q466.127,284,437,283.733M480.255,87.85q-17.577,3.166-34.727,5.755a228.047,228.047,0,0,0-49.593-51.99q10.2-1.511,20.6-3.293A278.549,278.549,0,0,1,480.255,87.85M345.035,10.163a334.011,334.011,0,0,1,53.371,18.764q7.361,3.472,14.489,7.358-10.072,1.68-19.95,3.093A225.884,225.884,0,0,0,328.732,6.77q8.244,1.451,16.3,3.392m14.733,31.6c.52.539,1.011,1.1,1.526,1.644-9.53,1.041-18.946,1.94-28.189,2.655q-1.6-3-3.275-5.876c-12.983-22.29-25.7-32.539-33.776-37.169.241.011.48.029.721.044,10.881,2.727,36.711,11.639,62.993,38.7M280.636,2.578c.769,0,1.532.022,2.3.026,2.01,2.536,7.452,11.705,12.917,40.92.272,1.454.546,3,.826,4.589q-16.421.6-32.112.592c.313-1.8.621-3.547.93-5.181C270.95,14.318,276.4,5.143,278.409,2.6c.739-.006,1.48-.026,2.227-.026M261.894,48.71q-16.278-.05-31.73-.66c1.1-2.08,2.21-4.12,3.365-6.112,16.359-28.27,32.478-36.865,38.458-39.212q1.6-.05,3.2-.079c-3.045,4.827-8.252,16.8-13.294,46.062m3.4-45.7c-8.072,4.63-20.8,14.875-33.789,37.174-1.458,2.5-2.852,5.1-4.223,7.733q-15.332-.659-29.785-1.8c1.315-1.447,2.622-2.861,3.916-4.2,26.343-27.2,52.323-36.147,63.2-38.873.226-.013.45-.029.677-.042M160.6,29.991A334.14,334.14,0,0,1,217.231,9.918q7.64-1.8,15.445-3.17a225.667,225.667,0,0,0-64.848,33.039c-1.353,1-2.646,2.028-3.962,3.045q-11.327-1.34-21.939-2.905,9.129-5.306,18.677-9.936m.263,15.145a228.144,228.144,0,0,0-47.7,52.224q-18.857-2.54-35.93-5.477a278.68,278.68,0,0,1,61.083-49.817q10.9,1.635,22.548,3.071M111.562,99.8a275.221,275.221,0,0,0-27.79,56.639c-17.431-1.811-33.464-3.769-48.094-5.759A277.982,277.982,0,0,1,75.122,94.2q17.326,2.968,36.441,5.608m-28.8,59.415a360.657,360.657,0,0,0-15.138,60.255c-21.121-1.079-40.008-2.234-56.431-3.363a274.776,274.776,0,0,1,23.086-62.78c14.73,2.034,30.923,4.034,48.482,5.887M4.048,287.806c16.747-.285,36.292-.581,58.437-.857a428.154,428.154,0,0,0,7.947,61.86c-20.737,1.539-39.348,3.194-55.675,4.819a341.935,341.935,0,0,1-9.085-43.163Q4.4,299.26,4.048,287.806m38.36,132.155c14.423-2.32,30.145-4.589,47.087-6.669a278.285,278.285,0,0,0,30.018,55.8q-18.054,2.637-34.56,5.7a278.55,278.55,0,0,1-42.545-54.833m44.847,57.087c10.839-1.969,22.149-3.843,33.971-5.553A216.333,216.333,0,0,0,172.6,522.671q-9.7,1.15-18.907,2.48a278.131,278.131,0,0,1-66.433-48.1m70.519,50.168c5.9-.816,11.966-1.578,18.157-2.285a207.722,207.722,0,0,0,58.577,27.122,327.886,327.886,0,0,1-57.494-16.166q-9.816-3.969-19.24-8.671m127.86,28.757c4.751-6.763,8.684-19.221,11.933-35.372q13.393.552,27.255,1.583c-10.184,16.289-22.562,28.339-37.57,33.769-.535.013-1.081.013-1.618.02m41.2-3.92A208.869,208.869,0,0,0,380.386,528.2q7.929,1.136,15.982,2.449-6.432,2.97-13.038,5.626a328.855,328.855,0,0,1-56.5,15.781M518.356,420.816q-23.744-3.886-46.763-6.93c.956-2.352,1.881-4.7,2.76-7.015A373.421,373.421,0,0,0,490.033,353q27.233,2.14,55.328,4.911a312.356,312.356,0,0,1-15,40.574q-5.5,11.465-12.007,22.333M546.1,355.341q-28.176-2.783-55.522-4.939a427.671,427.671,0,0,0,8.267-63.372q28.728.361,58.378.82-.389,12.543-1.874,24.795a341.759,341.759,0,0,1-9.249,42.7" transform="translate(-3.906 -2.576)" fill="#c6b5ff"/>
        </g>
      </g>
    </g>
    <rect id="Rectangle_2" data-name="Rectangle 2" width="563.988" height="563.986" transform="translate(4840.374 776.375)" fill="none"/>
    <rect id="Rectangle_3" data-name="Rectangle 3" width="563.988" height="563.986" transform="translate(4840.374 776.375)" fill="none"/>
  </g>
</svg>
